<?xml version="1.0" encoding="UTF-8" standalone="no"?>
<!-- Created with Inkscape (http://www.inkscape.org/) -->

<svg
   version="1.1"
   id="svg1"
   width="1001.5733"
   height="375.81067"
   viewBox="0 0 1001.5733 375.81067"
   sodipodi:docname="Logo bleu nu.svg"
   inkscape:version="1.4.2 (f4327f4, 2025-05-13)"
   xmlns:inkscape="http://www.inkscape.org/namespaces/inkscape"
   xmlns:sodipodi="http://sodipodi.sourceforge.net/DTD/sodipodi-0.dtd"
   xmlns="http://www.w3.org/2000/svg"
   xmlns:svg="http://www.w3.org/2000/svg">
  <defs
     id="defs1">
    <clipPath
       clipPathUnits="userSpaceOnUse"
       id="clipPath2">
      <path
         d="M 0,281.858 H 751.18 V 0 H 0 Z"
         transform="translate(-357.51951,-58.120904)"
         id="path2" />
    </clipPath>
    <clipPath
       clipPathUnits="userSpaceOnUse"
       id="clipPath4">
      <path
         d="M 0,281.858 H 751.18 V 0 H 0 Z"
         transform="translate(-77.472999,-210.17471)"
         id="path4" />
    </clipPath>
    <clipPath
       clipPathUnits="userSpaceOnUse"
       id="clipPath6">
      <path
         d="M 0,281.858 H 751.18 V 0 H 0 Z"
         transform="translate(-399.31691,-233.90401)"
         id="path6" />
    </clipPath>
    <clipPath
       clipPathUnits="userSpaceOnUse"
       id="clipPath8">
      <path
         d="M 0,281.858 H 751.18 V 0 H 0 Z"
         transform="translate(-549.92902,-207.39231)"
         id="path8" />
    </clipPath>
    <clipPath
       clipPathUnits="userSpaceOnUse"
       id="clipPath10">
      <path
         d="M 0,281.858 H 751.18 V 0 H 0 Z"
         transform="translate(-229.01991,-175.3194)"
         id="path10" />
    </clipPath>
  </defs>
  <sodipodi:namedview
     id="namedview1"
     pagecolor="#ffffff"
     bordercolor="#000000"
     borderopacity="0.25"
     inkscape:showpageshadow="2"
     inkscape:pageopacity="0.0"
     inkscape:pagecheckerboard="0"
     inkscape:deskcolor="#d1d1d1"
     inkscape:zoom="1.8161427"
     inkscape:cx="500.78665"
     inkscape:cy="138.48031"
     inkscape:window-width="1920"
     inkscape:window-height="1111"
     inkscape:window-x="-9"
     inkscape:window-y="-9"
     inkscape:window-maximized="1"
     inkscape:current-layer="layer-MC0">
    <inkscape:page
       x="0"
       y="0"
       inkscape:label="1"
       id="page1"
       width="1001.5733"
       height="375.81067"
       margin="29.2924 39.543999 31.310667 38.773201"
       bleed="0" />
  </sodipodi:namedview>
  <g
     id="layer-MC0"
     inkscape:groupmode="layer"
     inkscape:label="Calque 1">
    <path
       id="path1"
       d="m 0,0 c -3.45,-5.206 -7.386,-10.063 -11.835,-14.531 -7.584,-7.618 -16.372,-13.772 -26.192,-18.392 H 353.844 V 0 Z m -328.44,-32.923 h 225.373 V 0 H -328.44 Z"
       style="fill:#213463;fill-opacity:1;fill-rule:nonzero;stroke:none"
       transform="matrix(1.3333333,0,0,-1.3333333,476.69267,298.31613)"
       clip-path="url(#clipPath2)" />
    <path
       id="path3"
       d="m 0,0 c -10.006,-9.891 -15.005,-21.756 -15.005,-35.598 0,-7.662 1.748,-14.957 5.253,-21.873 2.999,2.967 7.561,7.472 13.691,13.532 6.124,6.054 12.625,12.479 19.506,19.28 6.876,6.795 13.504,13.285 19.881,19.467 C 49.702,0.984 54.641,5.804 58.146,9.27 48.634,13.96 38.573,15.571 27.947,14.089 17.313,12.605 8.003,7.908 0,0 M 83.651,-59.697 107.282,-83.058 95.657,-94.55 c -8.009,-7.915 -17.134,-13.969 -27.387,-18.17 -10.257,-4.206 -21.005,-6.303 -32.259,-6.303 -11.253,0 -22.009,2.097 -32.261,6.303 -10.258,4.201 -19.381,10.255 -27.381,18.17 -8.252,8.157 -14.387,17.362 -18.381,27.623 -4.002,10.253 -6.002,20.701 -6.002,31.329 0,10.627 2,21.008 6.002,31.148 3.994,10.132 10.129,19.28 18.381,27.437 8.253,8.157 17.568,14.276 27.945,18.354 10.373,4.079 20.942,6.116 31.697,6.116 10.753,0 21.32,-2.037 31.697,-6.116 C 78.085,37.263 87.403,31.144 95.657,22.987 L 107.282,11.491 13.879,-80.833 c 9.502,-4.698 19.563,-6.244 30.197,-4.634 10.627,1.607 19.939,6.362 27.949,14.276 z"
       style="fill:#213463;fill-opacity:1;fill-rule:nonzero;stroke:none"
       transform="matrix(1.3333333,0,0,-1.3333333,103.29733,95.577733)"
       clip-path="url(#clipPath4)" />
    <path
       id="path5"
       d="m 0,0 c 8.255,8.158 17.568,14.275 27.947,18.352 10.373,4.08 20.941,6.119 31.697,6.119 10.75,0 21.319,-2.039 31.7,-6.119 C 101.718,14.275 111.038,8.158 119.29,0 l 11.627,-11.493 -23.258,-23.362 -12.001,11.494 c -5.005,4.941 -10.636,8.65 -16.881,11.123 -6.252,2.469 -12.63,3.71 -19.133,3.71 -6.503,0 -12.883,-1.241 -19.13,-3.71 -6.253,-2.473 -11.879,-6.182 -16.879,-11.123 -5.008,-4.697 -8.76,-10.138 -11.255,-16.314 -2.501,-6.182 -3.752,-12.485 -3.752,-18.91 0,-6.431 1.251,-12.733 3.752,-18.908 2.495,-6.182 6.247,-11.745 11.255,-16.686 9.998,-9.889 22,-14.831 36.009,-14.831 6.751,0 13.255,1.233 19.511,3.707 6.245,2.469 11.747,6.176 16.503,11.124 l 12.001,11.494 23.258,-23.359 -11.627,-11.495 c -8.252,-8.157 -17.572,-14.276 -27.946,-18.354 -10.381,-4.079 -20.95,-6.117 -31.7,-6.117 -10.756,0 -21.324,2.038 -31.697,6.117 -10.379,4.078 -19.692,10.197 -27.947,18.354 -8.25,8.157 -14.382,17.299 -18.378,27.437 -4.004,10.134 -6.004,20.58 -6.004,31.333 0,10.753 2,21.191 6.004,31.33 C -14.382,-17.307 -8.25,-8.159 0,0"
       style="fill:#213463;fill-opacity:1;fill-rule:nonzero;stroke:none"
       transform="matrix(1.3333333,0,0,-1.3333333,532.42253,63.938667)"
       clip-path="url(#clipPath6)" />
    <path
       id="path7"
       d="m 0,0 c 4.37,10.011 10.373,18.783 18.004,26.325 7.624,7.538 16.561,13.47 26.818,17.798 10.255,4.322 21.133,6.488 32.637,6.488 11.754,0 22.696,-2.166 32.822,-6.488 10.131,-4.328 19.068,-10.26 26.822,-17.798 7.75,-7.542 13.815,-16.314 18.192,-26.325 4.375,-10.012 6.566,-20.826 6.566,-32.444 v -83.424 h -33.386 v 83.424 c 0,6.917 -1.313,13.406 -3.938,19.467 -2.626,6.055 -6.253,11.366 -10.879,15.943 -4.63,4.572 -10.069,8.157 -16.318,10.751 -6.253,2.597 -12.88,3.895 -19.881,3.895 -7.003,0 -13.568,-1.298 -19.693,-3.895 C 51.636,11.123 46.261,7.538 41.635,2.966 37.007,-1.611 33.383,-6.922 30.757,-12.977 c -2.626,-6.061 -3.939,-12.55 -3.939,-19.467 v -83.424 H -6.566 v 83.424 C -6.566,-20.826 -4.382,-10.012 0,0"
       style="fill:#213463;fill-opacity:1;fill-rule:nonzero;stroke:none"
       transform="matrix(1.3333333,0,0,-1.3333333,733.23867,99.2876)"
       clip-path="url(#clipPath8)" />
    <path
       id="path9"
       d="m 0,0 c 0,-6.923 1.313,-13.475 3.936,-19.649 2.625,-6.183 6.249,-11.559 10.878,-16.132 4.626,-4.577 10.066,-8.155 16.317,-10.752 6.25,-2.595 12.879,-3.892 19.881,-3.892 H 102.03 V 0 c 0,6.918 -1.316,13.406 -3.943,19.466 -2.624,6.054 -6.25,11.368 -10.876,15.944 -4.63,4.57 -10.068,8.158 -16.315,10.753 -6.253,2.596 -12.884,3.893 -19.884,3.893 -7.002,0 -13.631,-1.297 -19.881,-3.893 C 24.88,43.568 19.44,39.98 14.814,35.41 10.185,30.834 6.561,25.52 3.936,19.466 1.313,13.406 0,6.918 0,0 m 51.012,83.056 c 11.751,0 22.695,-2.167 32.823,-6.489 10.129,-4.327 19.003,-10.259 26.634,-17.798 7.624,-7.543 13.628,-16.313 18.004,-26.326 C 132.848,22.433 135.04,11.615 135.04,0 v -66.741 c 0,-11.621 -2.192,-22.431 -6.567,-32.444 -4.376,-10.012 -10.38,-18.845 -18.004,-26.511 -7.631,-7.658 -16.505,-13.656 -26.634,-17.98 -10.128,-4.324 -21.072,-6.491 -32.823,-6.491 H 34.135 v 32.999 h 16.877 c 11.256,0 21.194,3.153 29.824,9.457 8.628,6.302 14.687,14.4 18.19,24.286 H 51.012 c -11.506,0 -22.382,2.159 -32.634,6.488 -10.26,4.322 -19.257,10.318 -27.008,17.983 -7.754,7.659 -13.822,16.558 -18.192,26.696 -4.379,10.132 -6.565,20.887 -6.565,32.258 0,11.615 2.186,22.433 6.565,32.443 4.37,10.013 10.438,18.783 18.192,26.326 7.751,7.539 16.748,13.471 27.008,17.798 10.252,4.322 21.128,6.489 32.634,6.489"
       style="fill:#1ab18b;fill-opacity:1;fill-rule:nonzero;stroke:none"
       transform="matrix(1.3333333,0,0,-1.3333333,305.35987,142.05147)"
       clip-path="url(#clipPath10)" />
    <text
       id="text10"
       xml:space="preserve"
       transform="matrix(1.3333333,0,0,1.3179231,637.9636,333.57107)"><tspan
         id="tspan10"
         style="font-variant:normal;font-weight:700;font-stretch:normal;font-size:26.0952px;font-family:Arial;writing-mode:lr-tb;fill:#ffffff;fill-opacity:1;fill-rule:nonzero;stroke:none"
         x="0"
         dx="0 21.659016 21.659016 21.659016 21.659016 21.659016"
         y="0">GROUPE</tspan></text>
  </g>
</svg>
